#N canvas 352 103 931 749 12;
#X floatatom 275 212 5 0 0 0 - - -;
#X obj 89 86 i;
#X msg 127 56 1;
#X msg 89 56 0;
#X floatatom 89 212 5 0 0 0 - - -;
#X obj 275 240 print NOT;
#X obj 89 241 print OR;
#X obj 275 183 not;
#X obj 89 183 or;
#X obj 181 181 nor;
#X floatatom 199 88 5 0 0 0 - - -;
#X floatatom 180 211 5 0 0 0 - - -;
#X obj 180 240 print NOR;
#X floatatom 370 212 5 0 0 0 - - -;
#X obj 370 183 and;
#X obj 370 240 print AND;
#X connect 0 0 5 0;
#X connect 1 0 7 0;
#X connect 1 0 8 0;
#X connect 1 0 9 0;
#X connect 1 0 14 0;
#X connect 2 0 1 0;
#X connect 3 0 1 0;
#X connect 4 0 6 0;
#X connect 7 0 0 0;
#X connect 8 0 4 0;
#X connect 9 0 11 0;
#X connect 10 0 8 1;
#X connect 10 0 9 1;
#X connect 10 0 14 1;
#X connect 11 0 12 0;
#X connect 13 0 15 0;
#X connect 14 0 13 0;
#X coords 0 0 1 1 85 60 0;
