#N canvas 585 84 931 749 12;
#X floatatom 275 342 5 0 0 0 - - -;
#X floatatom 89 342 5 0 0 0 - - -;
#X obj 275 374 print NOT;
#X obj 89 375 print OR;
#X obj 275 313 not;
#X obj 89 313 or;
#X obj 181 311 nor;
#X floatatom 181 341 5 0 0 0 - - -;
#X obj 181 374 print NOR;
#X floatatom 370 342 5 0 0 0 - - -;
#X obj 370 313 and;
#X obj 370 374 print AND;
#X obj 466 312 nand;
#X floatatom 466 341 5 0 0 0 - - -;
#X obj 466 373 print NAND;
#X msg 89 36 0 0;
#X msg 136 36 0 1;
#X msg 183 36 1 0;
#X msg 229 36 1 1;
#X obj 89 99 unpack;
#X obj 89 126 i;
#X obj 128 126 i;
#X connect 0 0 2 0;
#X connect 1 0 3 0;
#X connect 4 0 0 0;
#X connect 5 0 1 0;
#X connect 6 0 7 0;
#X connect 7 0 8 0;
#X connect 9 0 11 0;
#X connect 10 0 9 0;
#X connect 12 0 13 0;
#X connect 13 0 14 0;
#X connect 15 0 19 0;
#X connect 16 0 19 0;
#X connect 17 0 19 0;
#X connect 18 0 19 0;
#X connect 19 0 20 0;
#X connect 19 1 21 0;
#X connect 20 0 5 0;
#X connect 20 0 12 0;
#X connect 20 0 10 0;
#X connect 20 0 6 0;
#X connect 20 0 4 0;
#X connect 21 0 5 1;
#X connect 21 0 6 1;
#X connect 21 0 10 1;
#X connect 21 0 12 1;
#X coords 0 0 1 1 85 60 0;
