#N canvas 688 23 921 852 16;
#X obj 79 402 and-3;
#X obj 79 367 not;
#X floatatom 79 439 5 0 0 0 - - -;
#X obj 160 585 or-4;
#X obj 172 401 and-3;
#X obj 219 364 not;
#X floatatom 172 438 5 0 0 0 - - -;
#X obj 79 140 unpack f f f;
#X obj 266 401 and-3;
#X obj 261 364 not;
#X floatatom 266 438 5 0 0 0 - - -;
#X obj 358 402 and-3;
#X floatatom 358 438 5 0 0 0 - - -;
#X floatatom 160 622 5 0 0 0 - - -;
#X obj 172 472 bng 20 250 50 0 empty empty empty 17 7 0 10 -257985
-1 -1;
#X obj 266 473 bng 20 250 50 0 empty empty empty 17 7 0 10 -257985
-1 -1;
#X obj 79 474 bng 20 250 50 0 empty empty empty 17 7 0 10 -232576 -1
-1;
#X text 213 585 Ci+1;
#X text 121 13 Ci;
#X text 76 13 A;
#X text 99 13 B;
#X msg 80 47 0 0 0;
#X msg 597 49 1 1 1;
#X msg 151 47 0 0 1;
#X msg 226 47 0 1 0;
#X msg 304 47 0 1 1;
#X msg 379 48 1 0 0;
#X msg 452 49 1 0 1;
#X msg 524 49 1 1 0;
#X obj 482 400 and-3;
#X floatatom 482 437 5 0 0 0 - - -;
#X obj 482 469 bng 20 250 50 0 empty empty empty 17 7 0 10 -257985
-1 -1;
#X obj 470 593 or-4;
#X floatatom 470 630 5 0 0 0 - - -;
#X text 523 593 S;
#X obj 418 363 not;
#X obj 460 363 not;
#X obj 573 400 and-3;
#X floatatom 573 437 5 0 0 0 - - -;
#X obj 573 470 bng 20 250 50 0 empty empty empty 17 7 0 10 -257985
-1 -1;
#X obj 573 370 not;
#X obj 620 370 not;
#X obj 675 399 and-3;
#X floatatom 675 436 5 0 0 0 - - -;
#X obj 675 469 bng 20 250 50 0 empty empty empty 17 7 0 10 -257985
-1 -1;
#X obj 698 369 not;
#X obj 742 369 not;
#X obj 358 473 bng 20 250 50 0 empty empty empty 17 7 0 10 -257985
-1 -1;
#X floatatom 358 516 5 0 0 0 - - -;
#X obj 358 556 bng 20 250 50 0 empty empty empty 17 7 0 10 -257985
-1 -1;
#X connect 0 0 2 0;
#X connect 1 0 0 0;
#X connect 2 0 16 0;
#X connect 2 0 3 0;
#X connect 3 0 13 0;
#X connect 4 0 6 0;
#X connect 5 0 4 2;
#X connect 6 0 14 0;
#X connect 6 0 3 1;
#X connect 7 0 1 0;
#X connect 7 0 4 0;
#X connect 7 0 8 0;
#X connect 7 0 11 0;
#X connect 7 0 35 0;
#X connect 7 0 40 0;
#X connect 7 0 42 0;
#X connect 7 1 0 1;
#X connect 7 1 4 1;
#X connect 7 1 9 0;
#X connect 7 1 11 1;
#X connect 7 1 36 0;
#X connect 7 1 37 1;
#X connect 7 1 45 0;
#X connect 7 2 0 2;
#X connect 7 2 5 0;
#X connect 7 2 8 2;
#X connect 7 2 11 2;
#X connect 7 2 29 2;
#X connect 7 2 41 0;
#X connect 7 2 46 0;
#X connect 8 0 10 0;
#X connect 9 0 8 1;
#X connect 10 0 15 0;
#X connect 10 0 3 2;
#X connect 11 0 12 0;
#X connect 12 0 47 0;
#X connect 12 0 48 0;
#X connect 14 0 2 0;
#X connect 15 0 6 0;
#X connect 16 0 48 0;
#X connect 21 0 7 0;
#X connect 22 0 7 0;
#X connect 23 0 7 0;
#X connect 24 0 7 0;
#X connect 25 0 7 0;
#X connect 26 0 7 0;
#X connect 27 0 7 0;
#X connect 28 0 7 0;
#X connect 29 0 30 0;
#X connect 30 0 31 0;
#X connect 30 0 32 1;
#X connect 31 0 12 0;
#X connect 32 0 33 0;
#X connect 35 0 29 0;
#X connect 36 0 29 1;
#X connect 37 0 38 0;
#X connect 38 0 39 0;
#X connect 38 0 32 2;
#X connect 39 0 30 0;
#X connect 40 0 37 0;
#X connect 41 0 37 2;
#X connect 42 0 43 0;
#X connect 43 0 44 0;
#X connect 43 0 32 3;
#X connect 44 0 38 0;
#X connect 45 0 42 1;
#X connect 46 0 42 2;
#X connect 47 0 10 0;
#X connect 48 0 49 0;
#X connect 48 0 3 3;
#X connect 48 0 32 0;
