#N canvas 676 100 366 351 12;
#X obj 147 177 nand;
#X obj 216 177 nand;
#X floatatom 147 80 1 0 1 2 D - -;
#X floatatom 216 99 1 0 1 2 WE - -;
#X floatatom 147 201 5 0 0 0 S - -;
#X floatatom 216 201 5 0 1 1 R - -;
#X floatatom 147 265 5 0 1 0 a - -;
#X floatatom 200 266 5 0 1 1 b - -;
#X obj 147 240 rs-latch;
#X obj 241 152 not;
#X connect 0 0 4 0;
#X connect 1 0 5 0;
#X connect 2 0 9 0;
#X connect 2 0 0 0;
#X connect 3 0 0 1;
#X connect 3 0 1 0;
#X connect 4 0 8 0;
#X connect 5 0 8 1;
#X connect 8 0 6 0;
#X connect 8 1 7 0;
#X connect 9 0 1 1;
