#N canvas 895 60 450 300 12;
#X obj 34 136 decoder;
#X msg 34 28 0 0;
#X msg 186 30 1 1;
#X floatatom 34 179 5 0 0 0 - - -;
#X floatatom 79 178 5 0 0 0 - - -;
#X floatatom 123 178 5 0 0 0 - - -;
#X floatatom 168 178 5 0 0 0 - - -;
#X msg 82 29 0 1;
#X msg 134 29 1 0;
#X obj 34 85 unpack;
#X connect 0 0 3 0;
#X connect 0 1 4 0;
#X connect 0 2 5 0;
#X connect 0 3 6 0;
#X connect 1 0 9 0;
#X connect 2 0 9 0;
#X connect 7 0 9 0;
#X connect 8 0 9 0;
#X connect 9 0 0 0;
#X connect 9 1 0 1;
