#N canvas 540 110 1043 617 12;
#X obj 141 433 adder;
#X obj 212 433 adder;
#X obj 286 433 adder;
#X obj 359 432 adder;
#X obj 141 223 unpack f f f f;
#X obj 249 223 unpack f f f f;
#X obj 141 44 bng 16 250 50 0 empty empty empty 17 7 0 10 -257985 -1
-1;
#X msg 391 195 0;
#X floatatom 391 458 5 0 0 0 - - -;
#X floatatom 318 459 5 0 0 0 - - -;
#X floatatom 244 460 5 0 0 0 - - -;
#X floatatom 173 459 5 0 0 0 - - -;
#X floatatom 141 503 5 0 0 3 Ignored_carry - -;
#X msg 141 194 0 1 0 1;
#X msg 141 132 0 1 1 1;
#X text 389 173 Initial carry;
#X text 119 133 A;
#X text 118 194 B;
#X text 369 195 Ci;
#X text 222 37 This example add two 4-bit binary strings. Binary string
A adds B with initial carry of 0;
#X connect 0 0 12 0;
#X connect 0 1 11 0;
#X connect 1 0 0 2;
#X connect 1 1 10 0;
#X connect 2 0 1 2;
#X connect 2 1 9 0;
#X connect 3 0 2 2;
#X connect 3 1 8 0;
#X connect 4 0 0 0;
#X connect 4 1 1 0;
#X connect 4 2 2 0;
#X connect 4 3 3 0;
#X connect 5 0 0 1;
#X connect 5 1 1 1;
#X connect 5 2 2 1;
#X connect 5 3 3 1;
#X connect 6 0 13 0;
#X connect 6 0 14 0;
#X connect 6 0 7 0;
#X connect 7 0 3 2;
#X connect 13 0 4 0;
#X connect 14 0 5 0;
