#N canvas 326 56 1043 617 16;
#X obj 141 403 adder;
#X obj 252 403 adder;
#X obj 356 403 adder;
#X obj 459 402 adder;
#X msg 305 186 0 1 1 0;
#X obj 141 219 unpack f f f f;
#X obj 305 219 unpack f f f f;
#X obj 141 24 bng 20 250 50 0 empty empty empty 17 7 0 10 -257985 -1
-1;
#X msg 506 186 0;
#X floatatom 506 437 5 0 0 0 - - -;
#X floatatom 403 438 5 0 0 0 - - -;
#X floatatom 299 438 5 0 0 0 - - -;
#X floatatom 188 440 5 0 0 0 - - -;
#X floatatom 55 517 5 0 0 3 Ignored_carry - -;
#X text 462 77 This example add 4-bit binary string to another.;
#X text 503 159 initial carry;
#X msg 141 186 0 1 0 1;
#X obj 204 32 loadbang;
#X connect 0 0 13 0;
#X connect 0 1 12 0;
#X connect 1 0 0 2;
#X connect 1 1 11 0;
#X connect 2 0 1 2;
#X connect 2 1 10 0;
#X connect 3 0 2 2;
#X connect 3 1 9 0;
#X connect 4 0 6 0;
#X connect 5 0 0 0;
#X connect 5 1 1 0;
#X connect 5 2 2 0;
#X connect 5 3 3 0;
#X connect 6 0 0 1;
#X connect 6 1 1 1;
#X connect 6 2 2 1;
#X connect 6 3 3 1;
#X connect 7 0 16 0;
#X connect 7 0 4 0;
#X connect 7 0 8 0;
#X connect 8 0 3 2;
#X connect 16 0 5 0;
#X connect 17 0 16 0;
#X connect 17 0 4 0;
