#N canvas 855 180 450 300 12;
#X msg 120 89 1;
#X msg 84 89 0;
#X msg 74 21 0;
#X floatatom 65 188 5 0 0 0 - - -;
#X obj 65 154 mux;
#X msg 33 21 0;
#X connect 0 0 4 2;
#X connect 1 0 4 2;
#X connect 2 0 4 1;
#X connect 4 0 3 0;
#X connect 5 0 4 0;
