#N canvas 761 23 517 395 12;
#X obj 188 271 nand;
#X obj 255 271 nand, f 5;
#X obj 188 181 unpack f f;
#X floatatom 255 295 5 0 0 0 - - -;
#X floatatom 188 295 5 0 0 0 - - -;
#X floatatom 255 236 5 0 0 0 - - -;
#X floatatom 188 235 5 0 0 0 - - -;
#X msg 188 83 1 1;
#X text 301 236 R;
#X text 299 295 b;
#X text 166 235 S;
#X text 166 295 a;
#X msg 188 110 0 1;
#X msg 188 137 1 0;
#X text 102 83 Quiescent;
#X text 95 137 Set a to 0;
#X text 95 109 Set a to 1;
#X text 241 12 R-S Latch is a logic gate that conceptually store 1-bit
of memory. The value a is being set.;
#X connect 0 0 4 0;
#X connect 1 0 3 0;
#X connect 2 0 6 0;
#X connect 2 1 5 0;
#X connect 3 0 0 1;
#X connect 4 0 1 1;
#X connect 5 0 1 0;
#X connect 6 0 0 0;
#X connect 7 0 2 0;
#X connect 12 0 2 0;
#X connect 13 0 2 0;
