#N canvas 688 175 450 300 12;
#X obj 51 170 nand;
#X obj 118 170 nand, f 5;
#X obj 51 80 unpack f f;
#X text 31 106 R;
#X text 161 104 S;
#X floatatom 118 194 5 0 0 0 - - -;
#X floatatom 51 194 5 0 0 0 - - -;
#X floatatom 118 105 5 0 0 0 - - -;
#X floatatom 51 104 5 0 0 0 - - -;
#X text 30 193 a;
#X text 162 195 b;
#X text 49 30 quiescent;
#X msg 51 52 1 1;
#X connect 0 0 6 0;
#X connect 1 0 5 0;
#X connect 2 0 8 0;
#X connect 2 1 7 0;
#X connect 5 0 0 1;
#X connect 6 0 1 1;
#X connect 7 0 1 0;
#X connect 8 0 0 0;
#X connect 12 0 2 0;
