#N canvas 645 61 576 611 12;
#X obj 148 363 nand;
#X obj 215 363 nand, f 5;
#X obj 148 208 unpack f f;
#X floatatom 215 387 5 0 1 1 b_(Q) - -;
#X floatatom 148 387 5 0 1 0 a_(Q') - -;
#X floatatom 148 239 1 0 1 0 S - -;
#X msg 148 110 1 1;
#X msg 148 137 0 1;
#X msg 148 164 1 0;
#X text 62 110 Quiescent;
#X text 55 164 Set a to 0;
#X text 55 136 Set a to 1;
#X text 37 23 R-S Latch is a logic gate that conceptually store 1-bit
of memory. The value a is being set.;
#X obj 148 83 loadbang;
#X floatatom 215 240 1 0 1 1 R - -;
#X msg 148 411 set \$1;
#X floatatom 148 435 5 0 0 0 - - -;
#X obj 76 388 bng 16 250 50 0 empty empty empty 17 7 0 10 -257985 -1
-1;
#X msg 202 136 0 0;
#X connect 0 0 4 0;
#X connect 1 0 3 0;
#X connect 2 0 5 0;
#X connect 2 1 14 0;
#X connect 3 0 0 1;
#X connect 4 0 15 0;
#X connect 5 0 0 0;
#X connect 5 0 17 0;
#X connect 6 0 2 0;
#X connect 7 0 2 0;
#X connect 8 0 2 0;
#X connect 13 0 6 0;
#X connect 14 0 1 0;
#X connect 14 0 17 0;
#X connect 15 0 16 0;
#X connect 16 0 1 1;
#X connect 17 0 16 0;
#X connect 18 0 2 0;
