#N canvas 606 94 943 814 16;
#X obj 109 412 and-3;
#X obj 109 377 not;
#X floatatom 109 449 5 0 0 0 - - -;
#X obj 229 608 or-4;
#X obj 202 411 and-3;
#X obj 249 374 not;
#X floatatom 202 448 5 0 0 0 - - -;
#X obj 296 411 and-3;
#X obj 319 374 not;
#X floatatom 296 448 5 0 0 0 - - -;
#X obj 388 412 and-3;
#X floatatom 388 449 5 0 0 0 - - -;
#X floatatom 229 645 5 0 0 0 - - -;
#X obj 183 492 bng 20 250 50 0 empty empty empty 17 7 0 10 -257985
-1 -1;
#X obj 296 493 bng 20 250 50 0 empty empty empty 17 7 0 10 -257985
-1 -1;
#X obj 388 491 bng 20 250 50 0 empty empty empty 17 7 0 10 -257985
-1 -1;
#X obj 110 492 bng 20 250 50 0 empty empty empty 17 7 0 10 -232576
-1 -1;
#X text 282 608 Ci+1;
#X obj 502 412 and-3;
#X floatatom 502 449 5 0 0 0 - - -;
#X obj 502 491 bng 20 250 50 0 empty empty empty 17 7 0 10 -257985
-1 -1;
#X obj 519 608 or-4;
#X floatatom 519 645 5 0 0 0 - - -;
#X text 572 608 S;
#X obj 438 375 not;
#X obj 485 375 not;
#X obj 593 412 and-3;
#X floatatom 593 449 5 0 0 0 - - -;
#X obj 593 492 bng 20 250 50 0 empty empty empty 17 7 0 10 -257985
-1 -1;
#X obj 593 375 not;
#X obj 640 375 not;
#X obj 695 411 and-3;
#X floatatom 695 448 5 0 0 0 - - -;
#X obj 695 491 bng 20 250 50 0 empty empty empty 17 7 0 10 -257985
-1 -1;
#X obj 718 374 not;
#X obj 762 374 not;
#X obj 109 27 inlet;
#X obj 157 56 inlet;
#X obj 206 85 inlet;
#X obj 229 682 outlet;
#X obj 519 681 outlet;
#X floatatom 388 534 5 0 0 0 - - -;
#X obj 109 131 pack f f f;
#X obj 109 167 unpack f f f;
#X obj 109 199 bng 20 250 50 0 empty empty empty 17 7 0 10 -204800
-1 -1;
#X obj 167 200 bng 20 250 50 0 empty empty empty 17 7 0 10 -204800
-1 -1;
#X obj 226 198 bng 20 250 50 0 empty empty empty 17 7 0 10 -204800
-1 -1;
#X floatatom 49 67 5 0 0 0 - - -;
#X floatatom 118 89 5 0 0 0 - - -;
#X floatatom 243 119 5 0 0 0 - - -;
#X text 84 27 A;
#X text 136 56 B;
#X text 177 85 Ci;
#X connect 0 0 2 0;
#X connect 1 0 0 0;
#X connect 2 0 3 0;
#X connect 2 0 16 0;
#X connect 3 0 12 0;
#X connect 4 0 6 0;
#X connect 5 0 4 2;
#X connect 6 0 3 1;
#X connect 6 0 13 0;
#X connect 7 0 9 0;
#X connect 8 0 7 1;
#X connect 9 0 3 2;
#X connect 9 0 14 0;
#X connect 10 0 11 0;
#X connect 11 0 15 0;
#X connect 11 0 41 0;
#X connect 12 0 39 0;
#X connect 13 0 2 0;
#X connect 14 0 6 0;
#X connect 15 0 9 0;
#X connect 16 0 41 0;
#X connect 18 0 19 0;
#X connect 19 0 20 0;
#X connect 19 0 21 1;
#X connect 20 0 11 0;
#X connect 21 0 22 0;
#X connect 22 0 40 0;
#X connect 24 0 18 0;
#X connect 25 0 18 1;
#X connect 26 0 27 0;
#X connect 27 0 28 0;
#X connect 27 0 21 2;
#X connect 28 0 19 0;
#X connect 29 0 26 0;
#X connect 30 0 26 2;
#X connect 31 0 32 0;
#X connect 32 0 33 0;
#X connect 32 0 21 3;
#X connect 33 0 27 0;
#X connect 34 0 31 1;
#X connect 35 0 31 2;
#X connect 36 0 42 0;
#X connect 36 0 47 0;
#X connect 37 0 42 1;
#X connect 37 0 48 0;
#X connect 38 0 42 2;
#X connect 38 0 49 0;
#X connect 41 0 21 0;
#X connect 41 0 3 3;
#X connect 42 0 43 0;
#X connect 43 0 44 0;
#X connect 43 0 1 0;
#X connect 43 0 4 0;
#X connect 43 0 7 0;
#X connect 43 0 10 0;
#X connect 43 0 24 0;
#X connect 43 0 29 0;
#X connect 43 0 31 0;
#X connect 43 1 45 0;
#X connect 43 1 0 1;
#X connect 43 1 4 1;
#X connect 43 1 8 0;
#X connect 43 1 10 1;
#X connect 43 1 25 0;
#X connect 43 1 26 1;
#X connect 43 1 34 0;
#X connect 43 2 46 0;
#X connect 43 2 0 2;
#X connect 43 2 5 0;
#X connect 43 2 7 2;
#X connect 43 2 10 2;
#X connect 43 2 18 2;
#X connect 43 2 30 0;
#X connect 43 2 35 0;
