#N canvas 625 291 758 525 10;
#X obj 203 147 and;
#X obj 165 85 inlet;
#X obj 218 85 inlet;
#X obj 271 86 inlet;
#X obj 203 186 and;
#X obj 203 223 outlet;
#X connect 0 0 4 0;
#X connect 1 0 0 0;
#X connect 2 0 0 1;
#X connect 3 0 4 1;
#X connect 4 0 5 0;
