#N canvas 178 109 758 525 16;
#X obj 59 153 and;
#X obj 59 35 inlet;
#X obj 174 34 inlet;
#X obj 281 34 inlet;
#X obj 59 277 and;
#X obj 59 404 outlet;
#X obj 59 183 bng 20 250 50 0 empty empty empty 17 7 0 10 -257985 -1
-1;
#X floatatom 59 209 5 0 0 0 - - -;
#X floatatom 59 64 5 0 0 0 - - -;
#X floatatom 174 63 5 0 0 0 - - -;
#X floatatom 281 63 5 0 0 0 - - -;
#X obj 59 307 bng 20 250 50 0 empty empty empty 17 7 0 10 -257985 -1
-1;
#X floatatom 59 333 5 0 0 0 - - -;
#X connect 0 0 4 0;
#X connect 0 0 6 0;
#X connect 0 0 7 0;
#X connect 1 0 0 0;
#X connect 1 0 8 0;
#X connect 2 0 0 1;
#X connect 2 0 9 0;
#X connect 3 0 4 1;
#X connect 3 0 10 0;
#X connect 4 0 5 0;
#X connect 4 0 11 0;
#X connect 4 0 12 0;
