#N canvas 634 267 563 389 12;
#X obj 41 77 inlet;
#X obj 41 341 outlet;
#X obj 139 19 inlet;
#X obj 206 270 print;
#X msg 206 244 \$1 is not a binary digit;
#X obj 41 196 bin-filter;
#X obj 139 196 bin-filter;
#X obj 41 293 &;
#X obj 41 101 bng 16 250 50 0 empty empty empty 17 7 0 10 -257985 -1
-1;
#X obj 139 43 bng 16 250 50 0 empty empty empty 17 7 0 10 -257985 -1
-1;
#X floatatom 41 124 5 0 0 0 - - -;
#X floatatom 139 65 5 0 0 0 - - -;
#X floatatom 41 317 5 0 0 0 - - -;
#X obj 139 89 bng 16 250 50 0 empty empty empty 17 7 0 10 -257985 -1
-1;
#X connect 0 0 8 0;
#X connect 0 0 10 0;
#X connect 2 0 9 0;
#X connect 2 0 11 0;
#X connect 4 0 3 0;
#X connect 5 0 7 0;
#X connect 5 1 7 0;
#X connect 5 2 4 0;
#X connect 6 0 7 1;
#X connect 6 1 7 1;
#X connect 6 2 4 0;
#X connect 7 0 1 0;
#X connect 7 0 12 0;
#X connect 10 0 5 0;
#X connect 11 0 6 0;
#X connect 11 0 13 0;
#X connect 13 0 10 0;
