#N canvas 756 243 450 300 10;
#X obj 41 19 inlet;
#X obj 41 138 outlet;
#X obj 139 19 inlet;
#X obj 206 130 print;
#X msg 206 104 \$1 is not a binary digit;
#X obj 41 56 bin-filter;
#X obj 139 56 bin-filter;
#X obj 41 103 &;
#X connect 0 0 5 0;
#X connect 2 0 6 0;
#X connect 4 0 3 0;
#X connect 5 0 7 0;
#X connect 5 1 7 0;
#X connect 5 2 4 0;
#X connect 6 0 7 1;
#X connect 6 1 7 1;
#X connect 6 2 4 0;
#X connect 7 0 1 0;
