#N canvas 744 353 624 612 12;
#X obj 170 40 inlet;
#X obj 98 143 not;
#X obj 129 143 not;
#X obj 98 169 and;
#X obj 170 168 and;
#X obj 242 168 and;
#X obj 170 142 not;
#X obj 241 142 not;
#X obj 318 168 and;
#X obj 98 236 outlet;
#X obj 170 91 i;
#X obj 218 91 i;
#X floatatom 218 66 5 0 0 0 - - -;
#X floatatom 170 65 5 0 0 0 - - -;
#X floatatom 98 200 5 0 0 0 - - -;
#X floatatom 170 200 5 0 0 0 - - -;
#X floatatom 242 199 5 0 0 0 - - -;
#X floatatom 318 200 5 0 0 0 - - -;
#X obj 170 236 outlet;
#X obj 242 235 outlet;
#X obj 318 234 outlet;
#X obj 218 41 inlet;
#X connect 0 0 13 0;
#X connect 1 0 3 0;
#X connect 2 0 3 1;
#X connect 3 0 14 0;
#X connect 4 0 15 0;
#X connect 5 0 16 0;
#X connect 6 0 4 0;
#X connect 7 0 5 1;
#X connect 8 0 17 0;
#X connect 10 0 1 0;
#X connect 10 0 6 0;
#X connect 10 0 5 0;
#X connect 10 0 8 0;
#X connect 11 0 2 0;
#X connect 11 0 7 0;
#X connect 11 0 4 1;
#X connect 11 0 8 1;
#X connect 12 0 11 0;
#X connect 13 0 10 0;
#X connect 14 0 9 0;
#X connect 15 0 18 0;
#X connect 16 0 19 0;
#X connect 17 0 20 0;
#X connect 21 0 12 0;
