#N canvas 177 106 652 651 12;
#X text 203 32 Source;
#X text 50 34 A;
#X text 111 34 B;
#X obj 158 126 spigot;
#X obj 47 129 spigot;
#X obj 86 102 not;
#X obj 205 58 inlet;
#X obj 47 58 inlet;
#X obj 105 58 inlet;
#X obj 47 169 outlet;
#X connect 3 0 9 0;
#X connect 4 0 9 0;
#X connect 5 0 4 1;
#X connect 6 0 5 0;
#X connect 6 0 3 1;
#X connect 7 0 4 0;
#X connect 8 0 3 0;
