#N canvas 962 382 285 410 12;
#X obj 138 58 inlet;
#X obj 138 224 and;
#X obj 138 247 not;
#X obj 156 130 inlet;
#X obj 138 295 outlet;
#X obj 138 81 bng 16 250 50 0 empty empty empty 17 7 0 10 -257985 -1
-1;
#X obj 156 154 bng 16 250 50 0 empty empty empty 17 7 0 10 -257985
-1 -1;
#X floatatom 90 101 5 0 0 0 - - -;
#X floatatom 195 183 5 0 0 0 - - -;
#X floatatom 138 271 5 0 0 0 - - -;
#X connect 0 0 1 0;
#X connect 0 0 5 0;
#X connect 0 0 7 0;
#X connect 1 0 2 0;
#X connect 2 0 4 0;
#X connect 2 0 9 0;
#X connect 3 0 1 1;
#X connect 3 0 6 0;
#X connect 3 0 8 0;
