#N canvas 719 325 596 458 12;
#X obj 41 190 expr if($i1 <= 0 \, 1 \, 0);
#X obj 41 19 inlet;
#X obj 41 272 outlet;
#X obj 108 161 print;
#X msg 108 135 \$1 is not a binary digit;
#X obj 41 96 bin-filter;
#X obj 41 43 bng 16 250 50 0 empty empty empty 17 7 0 10 -257985 -1
-1;
#X floatatom 41 64 5 0 0 0 - - -;
#X obj 41 216 bng 16 250 50 0 empty empty empty 17 7 0 10 -257985 -1
-1;
#X floatatom 41 238 5 0 0 0 - - -;
#X connect 0 0 2 0;
#X connect 0 0 8 0;
#X connect 0 0 9 0;
#X connect 1 0 5 0;
#X connect 1 0 6 0;
#X connect 1 0 7 0;
#X connect 4 0 3 0;
#X connect 5 0 0 0;
#X connect 5 1 0 0;
#X connect 5 2 4 0;
