#N canvas 813 126 450 300 12;
#X obj 41 149 expr if($i1 <= 0 \, 1 \, 0);
#X obj 41 19 inlet;
#X obj 41 187 outlet;
#X obj 108 120 print;
#X msg 108 94 \$1 is not a binary digit;
#X obj 41 55 bin-filter;
#X connect 0 0 2 0;
#X connect 1 0 5 0;
#X connect 4 0 3 0;
#X connect 5 0 0 0;
#X connect 5 1 0 0;
#X connect 5 2 4 0;
