#N canvas 532 50 908 489 12;
#X obj 41 19 inlet;
#X obj 41 138 outlet;
#X obj 41 103 |;
#X obj 139 19 inlet;
#X obj 206 130 print;
#X msg 206 104 \$1 is not a binary digit;
#X obj 41 56 bin-filter;
#X obj 139 56 bin-filter;
#X connect 0 0 6 0;
#X connect 2 0 1 0;
#X connect 3 0 7 0;
#X connect 5 0 4 0;
#X connect 6 0 2 0;
#X connect 6 1 2 0;
#X connect 6 2 5 0;
#X connect 7 0 2 1;
#X connect 7 1 2 1;
#X connect 7 2 5 0;
