#N canvas 930 23 480 516 12;
#X obj 242 290 nand;
#X obj 309 290 nand, f 5;
#X floatatom 309 314 5 0 1 1 b - -;
#X floatatom 242 314 5 0 1 0 a - -;
#X floatatom 309 205 1 0 1 1 R - -;
#X floatatom 242 204 1 0 1 0 S - -;
#X text 131 71 Quiescent;
#X text 21 18 R-S Latch is a logic gate that conceptually store 1-bit
of memory. The value a is being set.;
#X obj 242 73 inlet;
#X obj 309 73 inlet;
#X obj 242 418 outlet;
#X obj 309 417 outlet;
#X obj 242 338 bng 16 250 50 0 empty empty empty 17 7 0 10 -257985
-1 -1;
#X obj 309 338 bng 16 250 50 0 empty empty empty 17 7 0 10 -257985
-1 -1;
#X obj 242 98 bng 16 250 50 0 empty empty empty 17 7 0 10 -257985 -1
-1;
#X obj 309 98 bng 16 250 50 0 empty empty empty 17 7 0 10 -257985 -1
-1;
#X obj 133 95 loadbang;
#X msg 133 120 1 1;
#X obj 133 146 unpack f f;
#X msg 242 360 set \$1;
#X floatatom 242 386 5 0 0 0 - - -;
#X obj 193 315 bng 16 250 50 0 empty empty empty 17 7 0 10 -257985
-1 -1;
#X floatatom 242 120 5 0 0 0 - - -;
#X floatatom 309 120 5 0 0 0 - - -;
#X connect 0 0 3 0;
#X connect 1 0 2 0;
#X connect 2 0 0 1;
#X connect 2 0 13 0;
#X connect 2 0 11 0;
#X connect 3 0 12 0;
#X connect 3 0 10 0;
#X connect 3 0 19 0;
#X connect 4 0 1 0;
#X connect 4 0 21 0;
#X connect 5 0 0 0;
#X connect 5 0 21 0;
#X connect 8 0 5 0;
#X connect 8 0 22 0;
#X connect 8 0 14 0;
#X connect 9 0 4 0;
#X connect 9 0 23 0;
#X connect 9 0 15 0;
#X connect 16 0 17 0;
#X connect 17 0 18 0;
#X connect 18 0 5 0;
#X connect 18 1 4 0;
#X connect 19 0 20 0;
#X connect 20 0 1 1;
#X connect 21 0 20 0;
