#N canvas 661 155 450 300 12;
#X obj 78 32 inlet;
#X obj 78 65 bin-filter;
#X obj 78 229 outlet;
#X obj 145 131 print;
#X msg 145 105 \$1 is not a binary digit;
#X obj 78 131 sel 1 0;
#X msg 78 180 0;
#X msg 114 180 1;
#X connect 0 0 1 0;
#X connect 1 0 5 0;
#X connect 1 1 5 0;
#X connect 1 2 4 0;
#X connect 4 0 3 0;
#X connect 5 0 6 0;
#X connect 5 1 7 0;
#X connect 6 0 2 0;
#X connect 7 0 2 0;
